<svg aria-hidden="true" style="position:absolute;width:0;height:0;overflow:hidden" xmlns="http://www.w3.org/2000/svg">
    <defs>
        <symbol id="icon-smartphone" viewBox="0 0 20 32">
            <path d="M17 0H3C1.346 0 0 1.346 0 3v26c0 1.654 1.346 3 3 3h14c1.654 0 3-1.346 3-3V3c0-1.654-1.346-3-3-3zM3 2h14a1 1 0 0 1 1 1v21H2V3a1 1 0 0 1 1-1zm14 28H3a1 1 0 0 1-1-1v-3h16v3a1 1 0 0 1-1 1z"/>
            <path d="M4.707 27.478c.391.365.391.956 0 1.321s-1.024.365-1.414 0c-.391-.365-.391-.956 0-1.321s1.024-.365 1.414 0z"/>
        </symbol>
        <symbol id="icon-envelope" viewBox="0 0 43 32">
            <path d="M38.667 0H4C1.794 0 0 1.794 0 4v24c0 2.206 1.794 4 4 4h34.667c2.206 0 4-1.794 4-4V4c0-2.206-1.794-4-4-4zm0 2.667c.181 0 .353.038.511.103L21.334 18.236 3.49 2.77a1.32 1.32 0 0 1 .511-.103h34.667zm0 26.666H4A1.334 1.334 0 0 1 2.667 28V5.587L20.46 21.008a1.335 1.335 0 0 0 1.748 0L40.001 5.587V28c0 .736-.598 1.333-1.333 1.333z"/>
        </symbol>
        <symbol id="icon-instagram" viewBox="0 0 32 32">
            <path d="M31.969 9.408c-.075-1.7-.35-2.869-.744-3.882a7.806 7.806 0 0 0-1.851-2.838A7.867 7.867 0 0 0 26.542.844C25.523.45 24.36.175 22.66.1 20.947.019 20.403 0 16.059 0s-4.888.019-6.595.094c-1.7.075-2.869.35-3.882.744a7.803 7.803 0 0 0-2.838 1.85A7.867 7.867 0 0 0 .9 5.52C.506 6.539.231 7.702.156 9.402c-.081 1.713-.1 2.257-.1 6.601s.019 4.888.094 6.595c.075 1.7.35 2.869.744 3.882a7.895 7.895 0 0 0 1.85 2.838 7.867 7.867 0 0 0 2.832 1.844c1.019.394 2.182.669 3.882.744 1.706.075 2.25.094 6.595.094s4.888-.019 6.595-.094c1.7-.075 2.869-.35 3.882-.744a8.184 8.184 0 0 0 4.682-4.682c.394-1.019.669-2.182.744-3.882.075-1.707.094-2.251.094-6.595s-.006-4.888-.081-6.595zm-2.882 13.065c-.069 1.563-.331 2.407-.55 2.969a5.31 5.31 0 0 1-3.038 3.038c-.563.219-1.413.481-2.969.55-1.688.075-2.194.094-6.464.094s-4.782-.019-6.464-.094c-1.563-.069-2.407-.331-2.969-.55a4.926 4.926 0 0 1-1.838-1.194 4.974 4.974 0 0 1-1.194-1.838c-.219-.563-.481-1.413-.55-2.969-.075-1.688-.094-2.194-.094-6.464s.019-4.782.094-6.464c.069-1.563.331-2.407.55-2.969a4.868 4.868 0 0 1 1.2-1.838A4.974 4.974 0 0 1 6.639 3.55c.563-.219 1.413-.481 2.969-.55 1.688-.075 2.194-.094 6.464-.094 4.276 0 4.782.019 6.464.094 1.563.069 2.407.331 2.969.55a4.914 4.914 0 0 1 1.838 1.194 4.974 4.974 0 0 1 1.194 1.838c.219.563.481 1.413.55 2.969.075 1.688.094 2.194.094 6.464s-.019 4.77-.094 6.458z"/>
            <path d="M16.059 7.783c-4.538 0-8.22 3.682-8.22 8.22s3.682 8.22 8.22 8.22c4.539 0 8.22-3.682 8.22-8.22s-3.682-8.22-8.22-8.22zm0 13.552a5.333 5.333 0 0 1 0-10.664 5.333 5.333 0 0 1 0 10.664zM26.524 7.458a1.919 1.919 0 1 1-3.838 0 1.919 1.919 0 0 1 3.838 0z"/>
        </symbol>
        <symbol id="icon-land-surveyor" viewBox="0 0 18 32">
            <path d="M7.591 0.701c0.232-0.005 0.292 0.406 0.305 0.964v1.417l0 0.001c0.013 0.121 0.116 0.216 0.241 0.216s0.228-0.095 0.241-0.217v-1.43l-0 0.006c0.002-0.040 0.003-0.081 0.003-0.121 0-0.374-0.088-0.727-0.237-1.028l-0.022 0.002c0.179-0.021 0.361-0.032 0.546-0.032 0.066 0 0.131 0.001 0.187 0.004l0.013 0c0.208 0.009 0.414 0.030 0.584 0.057l0.006-0.011c-0.172 0.311-0.269 0.669-0.269 1.050 0 0.040 0.001 0.081 0.003 0.115v1.385l0.001 0.002c0.035 0.103 0.132 0.177 0.247 0.177s0.212-0.074 0.247-0.179v-1.37c0.013-0.544 0.073-0.94 0.299-0.94h0c0.031-0 0.062-0.005 0.088-0.013l0.096 0.047 0.010 0.006c0.673 0.461 1.133 1.209 1.204 2.077l0.001 0.002c0.036 0.1 0.132 0.172 0.245 0.172 0.12 0 0.222-0.082 0.252-0.194l-0-0.007c-0.051-1.086-0.695-2.016-1.633-2.483l0.019 0.009c-0.417-0.219-0.885-0.354-1.391-0.384l0.007 0c-0.047-0.002-0.093-0.003-0.14-0.003-0.456 0-0.889 0.1-1.259 0.271-0.878 0.383-1.586 1.221-1.773 2.604l0-0.001c-0.001 0.007-0.001 0.014-0.001 0.020 0 0.125 0.095 0.228 0.217 0.241l-0.001-0c0.008 0.001 0.016 0.001 0.024 0.001 0.126 0 0.231-0.089 0.255-0.209 0.232-1.182 0.734-1.898 1.302-2.224l-0.001-0c0.013 0.003 0.027 0.005 0.042 0.005s0.028-0.002 0.040-0.005zM7.706 30.893h0.406l-0.453-10.417h-0.352l-5.258 9.276h0.242c0.102 0.001 0.185 0.085 0.185 0.187 0 0 0 0 0 0v0 0.737c-0.003 0.101-0.084 0.182-0.185 0.185h-2.107c-0.102-0.001-0.183-0.083-0.185-0.185v-0.729c0-0.001-0-0.002-0-0.003 0-0.102 0.083-0.185 0.185-0.185 0 0 0 0 0 0h0.336l4.503-9.297h-1.19c-0.001 0-0.002 0-0.003 0-0.086 0-0.156-0.070-0.156-0.156 0 0 0 0 0-0v0-2.227c0-0.088 0.071-0.159 0.159-0.159v0h2.638c-0.473-0.53-0.763-1.234-0.763-2.005v-0c0-0.114 0.008-0.226 0.022-0.336l-0.001 0.013h-3.229c-0.178-0.001-0.321-0.145-0.323-0.323v-0.948l-0.615-0.109c-0.204-0.015-0.365-0.177-0.38-0.379l-0-0.001v-0.344c0.017-0.202 0.178-0.362 0.379-0.378l0.001-0 0.607-0.109v-0.948c0.001-0.179 0.147-0.323 0.325-0.323 0.002 0 0.004 0 0.006 0h12.747v-0.521c0.001-0.163 0.134-0.294 0.297-0.294 0 0 0 0 0 0h1.229c0.162 0.001 0.293 0.132 0.294 0.294v4.896c0 0.001 0 0.002 0 0.003 0 0.163-0.131 0.295-0.294 0.297h-1.229c-0.164 0-0.297-0.133-0.297-0.297v0-0.521h-3.456c0.012 0.093 0.018 0.201 0.018 0.311 0 0.004 0 0.009-0 0.013v-0.001c0 0.001 0 0.002 0 0.003 0 0.77-0.288 1.472-0.763 2.005l0.003-0.003h2.638c0 0 0 0 0 0 0.086 0 0.156 0.070 0.156 0.156 0 0.001 0 0.002-0 0.003v-0 2.237c0 0.086-0.070 0.156-0.156 0.156v0h-1.188l4.513 9.289h0.349c0.102 0.001 0.185 0.085 0.185 0.187 0 0 0 0 0 0v0 0.737c-0.003 0.101-0.084 0.182-0.185 0.185h-2.112c-0.102-0.001-0.183-0.083-0.185-0.185v-0.735c0-0.001-0-0.002-0-0.003 0-0.102 0.083-0.185 0.185-0.185 0 0 0 0 0 0h0.221l-5.26-9.297h-0.352l-0.453 10.43h0.406c0.102 0.001 0.183 0.083 0.185 0.185v0.737c-0.003 0.101-0.084 0.182-0.185 0.185h-2.107c-0.102-0.001-0.183-0.083-0.185-0.185v-0.737c0-0.102 0.083-0.185 0.185-0.185v0zM7.031 15.594c-0.022 0.099-0.034 0.213-0.034 0.33 0 0.461 0.192 0.876 0.499 1.172l0.001 0.001c0.324 0.314 0.767 0.508 1.255 0.508s0.931-0.194 1.256-0.508l-0 0c0.306-0.3 0.497-0.718 0.497-1.18v-0c0-0.001 0-0.003 0-0.005 0-0.113-0.011-0.223-0.033-0.329l0.002 0.011zM11.654 3.94l0.026 0.299c0.039 0.011 0.072 0.027 0.103 0.048l-0.001-0.001c0.049 0.035 0.088 0.079 0.116 0.131l0.001 0.002c0.034 0.063 0.058 0.136 0.067 0.213l0 0.003c0.005 0.039 0.007 0.084 0.007 0.13s-0.003 0.091-0.008 0.136l0.001-0.005c-0.010 0.099-0.026 0.187-0.047 0.274l0.003-0.013c-0.024 0.102-0.053 0.188-0.088 0.272l0.004-0.012c-0.062 0.16-0.145 0.298-0.249 0.419l0.002-0.002c-0.071 0.083-0.165 0.144-0.272 0.174l-0.004 0.001-0.021 0.073c-0.013 0.039-0.026 0.081-0.036 0.117-0.081 0.369-0.23 0.694-0.435 0.976l0.005-0.008q-0.078 0.099-0.164 0.188c-0.039 0.042-0.081 0.081-0.122 0.117 0.001 0.005 0.001 0.011 0.001 0.017s-0 0.012-0.001 0.018l0-0.001v0.781c0.027-0.012 0.059-0.019 0.092-0.019s0.065 0.007 0.094 0.020l-0.001-0.001c3.646 1.469 3.497 0.521 3.849 2.56h-11.638c0.315-2.003 0.078-1.042 3.885-2.555 0.011-0.006 0.024-0.011 0.038-0.013l0.001-0v-0.781c0.001-0.025 0.008-0.048 0.019-0.069l-0 0.001-0.070-0.065-0.128-0.138c-0.127-0.15-0.235-0.322-0.317-0.507l-0.005-0.014c-0.072-0.158-0.148-0.359-0.213-0.564l-0.011-0.040-0.031-0.112c-0.093-0.013-0.175-0.052-0.24-0.11l0 0c-0.096-0.084-0.174-0.187-0.229-0.302l-0.002-0.006c-0.042-0.083-0.081-0.179-0.109-0.28l-0.003-0.011c-0.026-0.093-0.044-0.201-0.052-0.312l-0-0.005c-0.006-0.047-0.010-0.102-0.010-0.158s0.004-0.11 0.010-0.164l-0.001 0.006c0.009-0.097 0.038-0.185 0.082-0.264l-0.002 0.003c0.032-0.050 0.072-0.092 0.118-0.124l0.001-0.001c0.028-0.017 0.061-0.031 0.096-0.041l0.003-0.001 0.029-0.279v-0.036c-0.222-0.132-0.4-0.319-0.517-0.542l-0.004-0.007 0.453-0.188c0.084 0.155 0.206 0.28 0.355 0.365l0.005 0.002c0.552 0.344 1.526 0.521 2.529 0.521 0.060 0.002 0.13 0.003 0.201 0.003 0.901 0 1.761-0.175 2.548-0.493l-0.046 0.016c0.226-0.094 0.414-0.24 0.555-0.424l0.002-0.003 0.427 0.245c-0.164 0.233-0.381 0.419-0.633 0.543l-0.010 0.004zM6.422 4.216l-0.076 0.448c-0.006 0.036-0.037 0.064-0.075 0.064-0.005 0-0.010-0-0.014-0.001l0 0h-0.029l-0.273-0.177h-0.013c-0.047 0-0.081 0-0.115 0.039-0.019 0.037-0.031 0.081-0.034 0.127l-0 0.001c-0.004 0.033-0.006 0.071-0.006 0.109s0.002 0.077 0.006 0.114l-0-0.005c0.012 0.099 0.030 0.187 0.055 0.273l-0.003-0.012c0.026 0.089 0.057 0.166 0.095 0.239l-0.003-0.007c0.035 0.077 0.082 0.143 0.14 0.198l0 0c0.021 0.020 0.049 0.032 0.081 0.032 0.005 0 0.011-0 0.016-0.001l-0.001 0c0.012-0.003 0.027-0.005 0.042-0.005 0.030 0 0.058 0.008 0.082 0.021l-0.001-0c0.039 0.020 0.068 0.054 0.080 0.095l0 0.001c0.029 0.089 0.039 0.112 0.049 0.141l0.034 0.107c0.101 0.384 0.268 0.72 0.489 1.012l-0.005-0.007c0.107 0.124 0.224 0.234 0.351 0.332l0.006 0.004c0.128 0.092 0.274 0.179 0.428 0.253l0.017 0.008 0.091 0.044 0.099 0.039c0.112 0.044 0.244 0.081 0.382 0.107l0.014 0.002c0.118 0.025 0.254 0.039 0.393 0.039h0c0.021 0.001 0.045 0.001 0.069 0.001 0.143 0 0.283-0.014 0.419-0.040l-0.014 0.002c0.171-0.036 0.321-0.083 0.464-0.144l-0.016 0.006 0.086-0.039c0.173-0.084 0.321-0.177 0.458-0.285l-0.005 0.004c0.137-0.109 0.257-0.229 0.364-0.36l0.003-0.004c0.086-0.111 0.159-0.238 0.215-0.375l0.004-0.011c0.057-0.141 0.102-0.297 0.154-0.469l0.016-0.055c0.023-0.078 0.047-0.159 0.076-0.245 0.011-0.045 0.038-0.082 0.075-0.106l0.001-0c0.027-0.016 0.059-0.025 0.093-0.025 0.009 0 0.018 0.001 0.027 0.002l-0.001-0c0.036 0 0.081-0.021 0.125-0.073 0.074-0.089 0.134-0.193 0.175-0.305l0.002-0.007c0.025-0.061 0.049-0.135 0.068-0.212l0.002-0.012c0.017-0.063 0.030-0.138 0.036-0.214l0-0.005c0.003-0.026 0.005-0.056 0.005-0.087s-0.002-0.061-0.005-0.091l0 0.004c-0.002-0.040-0.012-0.078-0.029-0.111l0.001 0.002c-0.021-0.036-0.036-0.057-0.052-0.063-0.011-0.004-0.023-0.006-0.036-0.006s-0.026 0.002-0.037 0.006l0.001-0c-0.044 0.026-0.073 0.047-0.099 0.065-0.082 0.060-0.177 0.106-0.28 0.134l-0.006 0.001c-0.006 0.002-0.013 0.003-0.020 0.003-0.035 0-0.065-0.023-0.076-0.054l-0-0.001s0 0 0-0.016l-0.049-0.443c-1.302 0.383-3.253 0.432-4.526 0zM10.242 7.745l-0.216 0.13c-0.039 0.023-0.085 0.046-0.133 0.065l-0.007 0.003c-0.166 0.082-0.36 0.152-0.562 0.199l-0.019 0.004c-0.167 0.041-0.359 0.065-0.556 0.065-0.010 0-0.019-0-0.029-0h0.001c-0.167-0.005-0.326-0.025-0.48-0.060l0.016 0.003c-0.18-0.041-0.336-0.091-0.485-0.153l0.019 0.007c-0.13-0.050-0.237-0.099-0.34-0.156l0.015 0.007c-0.11-0.056-0.201-0.109-0.289-0.168l0.010 0.006v0.555l1.531 0.589 1.531-0.445v-0.651z"/>
        </symbol>
        <symbol id="icon-meeting" viewBox="0 0 32 32">
            <path d="M26.013 12.673c0 1.105-0.895 2-2 2s-2-0.895-2-2c0-1.105 0.895-2 2-2s2 0.895 2 2z"/>
            <path d="M18 9.713c0 1.105-0.895 2-2 2s-2-0.895-2-2c0-1.105 0.895-2 2-2s2 0.895 2 2z"/>
            <path d="M19.333 16.667v-2c0-1.105-0.895-2-2-2v0h-2.667c-1.105 0-2 0.895-2 2v0 2h6.667z"/>
            <path d="M10.060 12.673c0 1.105-0.895 2-2 2s-2-0.895-2-2c0-1.105 0.895-2 2-2s2 0.895 2 2z"/>
            <path d="M25.373 15.653h-1.333c-1.104 0-2.373 0.895-2.373 2l3.627 5.053h2.053v-5.053c0-0 0-0 0-0 0-1.095-0.88-1.985-1.972-2h-0.001zM11.667 17.323l-2.127 3.343h-1.54l2.333-3.333c0-1.107-0.893-1.7-2-1.7h-1.641c-1.105 0-2 0.895-2 2v0 3.7c0 0.736 0.597 1.333 1.333 1.333v0h4.975l-0.040 0.695h-3.52l-1.44 2.617h20l-5.667-8.655h-8.667z"/>
        </symbol>
        <symbol id="icon-construction" viewBox="0 0 32 32">
            <path d="M1.5 26h-1c0 2.35 1.9 4.25 4.25 4.25h26.75v-26h-26.25v-3.75h-0.5c-2.35 0-4.25 1.9-4.25 4.25v21.25h1c0-1.8 1.45-3.25 3.25-3.25h0.5v-17.5h25.25v24h-25.75c-1.8 0-3.25-1.45-3.25-3.25zM4.25 21.775c-1.1 0.125-2.075 0.675-2.75 1.475v-18.5c0-1.625 1.2-2.975 2.75-3.2v20.225z"/>
            <path d="M25.75 7.25h-3v16.875l1.5 3 1.5-3v-16.875zM24.75 8.25v2.75h-1v-2.75h1zM24.25 24.875l-0.5-1v-11.875h1v11.875l-0.5 1zM10.5 19.25v1h2l-1.25 6.925 0.975 0.175 1.275-7.1h3l1.275 7.1 0.975-0.175-1.25-6.925h2v-1h-2.175l-0.575-3.3c0.775-0.55 1.25-1.475 1.25-2.45 0-1.475-1.075-2.725-2.5-2.95v-3.3h-1v3.3c-1.425 0.25-2.5 1.475-2.5 2.95 0 0.975 0.475 1.875 1.25 2.45l-0.575 3.3h-2.175zM14.050 15.25c-0.65-0.35-1.050-1.025-1.050-1.75 0-1.1 0.9-2 2-2s2 0.9 2 2c0 0.725-0.4 1.4-1.050 1.75l-0.325 0.175 0.7 3.825h-2.65l0.675-3.825-0.3-0.175z"/>
        </symbol>
        <symbol id="icon-telegram" viewBox="0 0 32 32">
            <path d="M32 0 0 18l10.227 3.788L26 7 14.002 23.186l.01.004-.012-.004V32l5.735-6.691L27 28l5-28z"/>
        </symbol>
    </defs>
</svg>